<svg width="1226.196899" height="222.159698" viewBox="0 0 1226.2 222.16" fill="none" xmlns="http://www.w3.org/2000/svg" xmlns:xlink="http://www.w3.org/1999/xlink">
	<desc>
			Created with Pixso.
	</desc>
	<defs>
		<linearGradient x1="1198.556274" y1="26.597260" x2="874.314209" y2="289.688416" id="paint_linear_58_505_0" gradientUnits="userSpaceOnUse">
			<stop stop-color="#00B3FF"/>
			<stop offset="1.000000" stop-color="#AD00FF"/>
		</linearGradient>
	</defs>
	<path id="Subtract" d="M127.816 6.10352e-05L0.00952148 6.10352e-05L0 6.10352e-05L127.816 6.10352e-05ZM127.816 221.84C135.421 221.84 142.612 218.379 147.356 212.435L215.93 126.515C223.211 117.393 223.211 104.447 215.93 95.3253L147.356 9.40515C142.612 3.46144 135.421 6.10352e-05 127.816 6.10352e-05L1055.96 6.10352e-05C1063.56 6.10352e-05 1070.74 3.4539 1075.48 9.3866L1144.19 95.3068C1151.49 104.436 1151.49 117.405 1144.19 126.534L1075.48 212.454C1070.74 218.387 1063.56 221.84 1055.96 221.84L127.816 221.84Z" clip-rule="evenodd" fill="#FCFCFD" fill-opacity="1.000000" fill-rule="evenodd"/>
	<path id="Subtract" d="M1055.07 222.16L1132.62 222.16C1140.23 222.16 1147.42 218.698 1152.16 212.755L1220.74 126.834C1228.02 117.712 1228.02 104.767 1220.74 95.6447L1152.16 9.72449C1147.42 3.78078 1140.23 0.319397 1132.62 0.319397L1055.07 0.319397C1062.67 0.319397 1069.86 3.78078 1074.61 9.72449L1143.18 95.6447C1150.46 104.767 1150.46 117.712 1143.18 126.834L1074.61 212.755C1069.86 218.698 1062.67 222.16 1055.07 222.16Z" clip-rule="evenodd" fill="url(#paint_linear_58_505_0)" fill-opacity="1.000000" fill-rule="evenodd"/>
</svg>
