<svg width="102.290115" height="69.999878" viewBox="0 0 102.29 69.9999" fill="none" xmlns="http://www.w3.org/2000/svg" xmlns:xlink="http://www.w3.org/1999/xlink">
	<desc>
			Created with Pixso.
	</desc>
	<defs/>
	<path id="Vector" d="M0.37 38.77L5.66 4.19L16.71 4.19L12.76 29.77L28.45 29.77L27.16 38.77L0.37 38.77Z" fill="#FFFFFF" fill-opacity="1.000000" fill-rule="nonzero"/>
	<path id="Vector" d="M29.74 38.77L35.03 4.19L61.77 4.19L60.49 12.43L44.56 12.43L43.79 17.17L57.96 17.17L56.72 24.87L42.59 24.87L41.85 30.41L58.83 30.41L57.64 38.77L29.74 38.77Z" fill="#FFFFFF" fill-opacity="1.000000" fill-rule="nonzero"/>
	<path id="Vector" d="M0.03 58.11L2.53 58.11C2.53 58.18 2.53 58.24 2.53 58.32C2.53 58.4 2.53 58.52 2.53 58.67C2.53 59.78 2.88 60.61 3.59 61.16C4.29 61.73 5.33 62.01 6.69 62.01C7.7 62.01 8.48 61.8 9.07 61.36C9.66 60.92 9.95 60.35 9.95 59.6C9.95 59.09 9.81 58.67 9.51 58.32C9.22 57.98 8.45 57.52 7.24 56.95C7.06 56.87 6.79 56.74 6.43 56.58C3.5 55.22 2.04 53.67 2.04 51.96C2.04 50.57 2.56 49.46 3.62 48.61C4.68 47.76 6.08 47.34 7.85 47.34C9.68 47.34 11.1 47.79 12.12 48.72C13.14 49.64 13.66 50.93 13.66 52.58L13.66 52.92L11.21 52.92L11.21 52.84C11.21 51.76 10.92 50.96 10.34 50.42C9.77 49.88 8.91 49.61 7.77 49.61C6.8 49.61 6.04 49.8 5.48 50.18C4.89 50.54 4.61 51.06 4.61 51.71C4.61 52.49 5.5 53.29 7.24 54.09C7.32 54.13 7.37 54.16 7.39 54.18C9.69 55.22 11.14 56.07 11.72 56.72C12.3 57.38 12.6 58.21 12.6 59.22C12.6 60.72 12.03 61.93 10.87 62.84C9.71 63.76 8.17 64.22 6.23 64.22C4.3 64.22 2.79 63.73 1.66 62.75C0.55 61.75 0 60.41 0 58.71C0 58.55 0 58.44 0 58.34C0.01 58.26 0.01 58.18 0.03 58.11Z" fill="#FFFFFF" fill-opacity="1.000000" fill-rule="nonzero"/>
	<path id="Vector" d="M19.94 69.96L24.38 47.84L26.83 47.84L26.38 50.1C27.08 49.21 27.84 48.56 28.69 48.12C29.54 47.68 30.47 47.47 31.47 47.47C33.3 47.47 34.73 48.05 35.76 49.21C36.79 50.37 37.31 51.99 37.31 54.05C37.31 55.4 37.1 56.69 36.69 57.93C36.28 59.17 35.7 60.28 34.93 61.24C34.18 62.19 33.31 62.91 32.33 63.4C31.35 63.89 30.31 64.15 29.22 64.15C28.14 64.15 27.18 63.92 26.36 63.45C25.53 62.98 24.82 62.26 24.24 61.31L22.46 69.99L19.94 69.99L19.94 69.96ZM30.95 49.69C29.35 49.69 27.98 50.45 26.87 52.01C25.74 53.54 25.18 55.45 25.18 57.72C25.18 59.04 25.51 60.05 26.16 60.79C26.82 61.52 27.73 61.88 28.91 61.88C30.51 61.88 31.84 61.11 32.94 59.58C34.03 58.05 34.59 56.14 34.59 53.83C34.59 52.53 34.26 51.52 33.62 50.8C32.97 50.05 32.09 49.69 30.95 49.69Z" fill="#FFFFFF" fill-opacity="1.000000" fill-rule="nonzero"/>
	<path id="Vector" d="M45.56 57.39C45.56 54.45 46.37 52.04 48.01 50.14C49.64 48.25 51.73 47.32 54.27 47.32C56.3 47.32 57.88 47.92 59.06 49.12C60.23 50.31 60.8 51.96 60.8 54.03C60.8 56.97 59.99 59.37 58.36 61.25C56.72 63.12 54.63 64.07 52.09 64.07C50.01 64.07 48.41 63.48 47.27 62.31C46.13 61.15 45.56 59.5 45.56 57.39ZM53.98 49.65C53.15 49.65 52.4 49.83 51.73 50.21C51.06 50.59 50.47 51.14 49.96 51.89C49.46 52.64 49.07 53.54 48.77 54.57C48.48 55.6 48.33 56.61 48.33 57.6C48.33 58.94 48.66 59.97 49.33 60.69C50 61.41 50.94 61.77 52.17 61.77C53.87 61.77 55.27 61.02 56.35 59.51C57.43 58.01 57.96 56.09 57.96 53.72C57.96 52.4 57.62 51.38 56.95 50.68C56.27 50 55.29 49.65 53.98 49.65Z" fill="#FFFFFF" fill-opacity="1.000000" fill-rule="nonzero"/>
	<path id="Vector" d="M68.38 63.64L71.69 47.84L74.24 47.84L73.57 50.78C74.45 49.52 75.24 48.66 75.9 48.17C76.57 47.68 77.29 47.43 78.04 47.43C78.22 47.43 78.4 47.45 78.61 47.47C78.83 47.48 79.02 47.52 79.25 47.55L78.58 50.55C78.57 50.55 78.53 50.55 78.52 50.55C78.16 50.52 77.9 50.49 77.72 50.49C76.41 50.49 75.33 50.94 74.5 51.86C73.67 52.77 73.05 54.18 72.64 56.05L71.01 63.64L68.38 63.64Z" fill="#FFFFFF" fill-opacity="1.000000" fill-rule="nonzero"/>
	<path id="Vector" d="M90.09 63.64C89.72 63.76 89.37 63.84 89.06 63.89C88.75 63.95 88.47 63.97 88.25 63.97C87.14 63.97 86.3 63.76 85.75 63.33C85.19 62.91 84.92 62.27 84.92 61.41C84.92 61.21 84.93 60.97 84.98 60.66C85.03 60.35 85.1 59.96 85.18 59.48L87.2 50L84.92 50L85.41 47.83L87.66 47.83L88.57 43.53L91.23 43.53L90.32 47.83L93.05 47.83L92.59 50L89.85 50L87.77 59.78C87.71 60.02 87.67 60.23 87.64 60.43C87.61 60.62 87.59 60.77 87.59 60.89C87.59 61.18 87.69 61.39 87.9 61.56C88.12 61.72 88.41 61.78 88.8 61.78C89.06 61.78 89.32 61.77 89.6 61.73C89.88 61.7 90.17 61.65 90.5 61.6L90.09 63.64Z" fill="#FFFFFF" fill-opacity="1.000000" fill-rule="nonzero"/>
	<path id="Vector" d="M77.5 38.77L77.9 35.68C78.84 28.27 73.9 22.28 66.86 22.28L64.67 22.28L64.67 22.29L59.96 22.29L59.71 23.99L64.43 23.99L62.22 38.77L77.5 38.77Z" fill="#FFFFFF" fill-opacity="1.000000" fill-rule="nonzero"/>
	<path id="Vector" d="M67.04 20.86C74.08 20.86 80.54 14.85 81.49 7.46L81.9 4.22C81.88 4.22 81.88 4.22 81.86 4.22L82.09 2.72L82.32 0.96L82.37 0.96L82.5 0L80.75 0L80.12 4.19L67.37 4.19L64.89 20.86L67.04 20.86Z" fill="#FFFFFF" fill-opacity="1.000000" fill-rule="nonzero"/>
	<path id="Vector" d="M94.24 22.26C87.2 22.26 80.74 28.27 79.79 35.66L79.4 38.7C79.43 38.7 79.45 38.7 79.48 38.7L78.96 42.15L78.96 42.16L80.7 42.16L81.24 38.57C85.91 38.1 89.6 36.53 92.28 33.84C95.05 31.04 96.62 27.16 97.03 22.25L94.24 22.25L94.24 22.26Z" fill="#FFFFFF" fill-opacity="1.000000" fill-rule="nonzero"/>
	<path id="Vector" d="M97.16 19.21C97.13 17.32 96.88 15.54 96.39 13.89C95.87 12.11 95.13 10.59 94.19 9.35C92.77 7.47 91.1 6.15 89.19 5.37C87.81 4.79 85.99 4.45 83.77 4.3L83.36 7.46C82.42 14.87 87.36 20.86 94.4 20.86L100.29 20.86L100.29 20.91L102.04 20.91L102.29 19.21L97.16 19.21Z" fill="#FFFFFF" fill-opacity="1.000000" fill-rule="nonzero"/>
</svg>
