<svg width="102.290115" height="69.999878" viewBox="0 0 102.29 69.9999" fill="none" xmlns="http://www.w3.org/2000/svg" xmlns:xlink="http://www.w3.org/1999/xlink">
	<desc>
			Created with Pixso.
	</desc>
	<defs>
		<linearGradient x1="66.315140" y1="0.000000" x2="-68.913452" y2="106.359566" id="paint_linear_58_564_0" gradientUnits="userSpaceOnUse">
			<stop stop-color="#00B3FF"/>
			<stop offset="1.000000" stop-color="#AD00FF"/>
		</linearGradient>
	</defs>
	<path id="Union" d="M81.4925 7.46033C80.5457 14.8554 74.0811 20.8629 67.0452 20.8629L64.8904 20.8629L67.3717 4.19543L80.1213 4.19543L80.7579 0L82.5047 0L82.3741 0.963135L82.3251 0.963135L82.0965 2.7262L81.868 4.22809L81.9007 4.22809L81.4925 7.46033ZM0.375458 38.771L5.66464 4.19543L16.7164 4.19543L12.7659 29.7761L28.4538 29.7761L27.1642 38.771L0.375458 38.771ZM29.7435 38.771L35.0327 4.19543L61.7724 4.19543L60.4991 12.4394L44.5662 12.4394L43.799 17.1735L57.9688 17.1735L56.7281 24.8787L42.5909 24.8787L41.8563 30.4128L58.834 30.4128L57.6423 38.771L29.7435 38.771ZM96.3969 13.8923C96.8867 15.5411 97.1315 17.3204 97.1642 19.2141L102.29 19.2141L102.045 20.9119L100.299 20.9119L100.299 20.8629L94.4053 20.8629C87.9501 20.8629 83.2537 15.8198 83.2537 9.26379C83.2537 8.67401 83.2917 8.07202 83.3699 7.46039L83.778 4.30975C85.9981 4.45667 87.8102 4.79944 89.1978 5.37085C91.1077 6.15442 92.7729 7.47668 94.1931 9.35406C95.1399 10.5947 95.8745 12.1129 96.3969 13.8923ZM79.7948 35.6693C80.7416 28.2742 87.2061 22.2668 94.2421 22.2668L94.2421 22.2505L97.0336 22.2505C96.6255 27.1642 95.0583 31.0494 92.2831 33.8409C89.6059 36.5345 85.9165 38.1017 81.2477 38.5751L80.709 42.1665L78.9622 42.1665L78.9622 42.1502L79.4846 38.7057L79.403 38.7057L79.7948 35.6693ZM77.9011 35.6857L77.5093 38.7711L62.2295 38.7711L64.4333 23.9973L59.7155 23.9973L59.9604 22.2995L64.6782 22.2995L64.6782 22.2832L66.8657 22.2832C73.3209 22.2832 78.0173 27.3262 78.0173 33.8823C78.0173 34.472 77.9792 35.074 77.9011 35.6857ZM90.0956 63.6497C89.7202 63.7639 89.3773 63.8456 89.0672 63.8945C88.757 63.9598 88.4795 63.9761 88.2509 63.9761C87.1409 63.9761 86.3083 63.7639 85.7533 63.3395C85.1982 62.915 84.9207 62.2784 84.9207 61.4132C84.9207 61.2173 84.937 60.9724 84.986 60.6622C85.035 60.3521 85.1003 59.9603 85.1819 59.4869L87.2062 50.0023L84.9207 50.0023L85.4105 47.8311L87.6633 47.8311L88.5774 43.5377L91.2383 43.5377L90.3242 47.8311L93.0504 47.8311L92.5933 50.0023L89.8508 50.0023L87.7775 59.7807C87.7122 60.0256 87.6796 60.2378 87.6469 60.4337C87.6143 60.6296 87.598 60.7766 87.598 60.8908C87.598 61.1846 87.6959 61.3969 87.9081 61.5601C88.1203 61.7233 88.4142 61.7886 88.806 61.7886C89.0672 61.7886 89.3284 61.7723 89.6059 61.7397C89.8834 61.707 90.1772 61.6581 90.5037 61.6091L90.0956 63.6497ZM45.562 57.3973Q45.562 53.7951 47.1975 51.2397L47.1977 51.2394Q47.5633 50.6682 48.0107 50.1492C49.6432 48.2556 51.7327 47.325 54.2794 47.325C56.3036 47.325 57.8871 47.929 59.0625 49.1207C60.2379 50.3124 60.8092 51.9612 60.8092 54.0344C60.8092 56.9729 59.993 59.3726 58.3605 61.2499C56.7281 63.1273 54.6385 64.0741 52.0919 64.0741C50.0186 64.0741 48.4188 63.4864 47.2761 62.311C46.1334 61.152 45.562 59.5032 45.562 57.3973ZM0.0326538 58.1156L2.53032 58.1156L2.53032 58.6707C2.53032 59.7807 2.88947 60.6133 3.59142 61.1683C4.29338 61.7397 5.33815 62.0172 6.6931 62.0172C7.70523 62.0172 8.4888 61.805 9.07649 61.3642C9.66418 60.9234 9.95802 60.3521 9.95802 59.6011C9.95802 59.0951 9.8111 58.6707 9.51726 58.3278C9.22342 57.985 8.45616 57.5279 7.24814 56.9565C7.06856 56.8749 6.79105 56.7443 6.4319 56.5811C3.5098 55.2261 2.04057 53.6753 2.04057 51.9612C2.04057 50.5736 2.56297 49.4636 3.62407 48.6147C4.68517 47.7658 6.08908 47.3414 7.85214 47.3414C9.6805 47.3414 11.1007 47.7984 12.1292 48.7289C13.1413 49.6431 13.6637 50.9327 13.6637 52.5815L13.6637 52.9244L11.215 52.9244L11.215 52.8427C11.215 51.7653 10.9212 50.9654 10.3498 50.4267C9.77846 49.888 8.91324 49.6105 7.77052 49.6105C6.80737 49.6105 6.04012 49.8063 5.48508 50.1818C4.89738 50.541 4.61987 51.0634 4.61987 51.7164C4.61987 52.4999 5.5014 53.2998 7.24814 54.0997C7.32976 54.1324 7.37874 54.165 7.39505 54.1813C9.69682 55.2261 11.1497 56.075 11.7211 56.728C12.3088 57.381 12.6026 58.2136 12.6026 59.2256C12.6026 60.7275 12.0312 61.9355 10.8722 62.8497C9.71315 63.7639 8.17863 64.221 6.23601 64.221C4.30971 64.221 2.7915 63.7313 1.66512 62.7518C0.555038 61.756 0 60.4174 0 58.7196L0 58.3441C0.0163269 58.2625 0.0163269 58.1809 0.0326538 58.1156ZM68.3839 63.6497L71.6978 47.8474L74.2444 47.8474L73.5751 50.7858C74.4566 49.5289 75.2402 48.6636 75.9095 48.1739C76.5788 47.6841 77.2971 47.4393 78.048 47.4393C78.2276 47.4393 78.4072 47.4556 78.6194 47.4719C78.8316 47.4883 79.0275 47.5209 79.2561 47.5536L78.5868 50.5573L78.5215 50.5573C78.1623 50.5247 77.9011 50.492 77.7216 50.492C76.4156 50.492 75.3382 50.9491 74.5056 51.8633C73.673 52.7775 73.0527 54.1814 72.6446 56.0587L71.0121 63.6497L68.3839 63.6497ZM19.9487 69.9672L24.389 47.8474L26.8377 47.8474L26.3806 50.1002C27.0826 49.2186 27.8498 48.5656 28.6987 48.1249C29.5476 47.6841 30.4781 47.4719 31.4739 47.4719C33.3022 47.4719 34.7388 48.0596 35.7673 49.2186C36.7957 50.3777 37.3181 51.9938 37.3181 54.0507C37.3181 55.4056 37.1059 56.6953 36.6978 57.936C36.2896 59.1766 35.702 60.2867 34.9347 61.2499C34.1838 62.1967 33.3186 62.915 32.3391 63.4047C31.3596 63.8945 30.3148 64.1556 29.2211 64.1556C28.1437 64.1556 27.1805 63.9271 26.3643 63.4537C25.5317 62.9803 24.8298 62.262 24.2421 61.3152L22.4627 69.9999L19.9487 69.9999L19.9487 69.9672ZM53.9855 49.6594C53.153 49.6594 52.4021 49.839 51.7327 50.2145C51.0634 50.59 50.4757 51.145 49.9697 51.8959C49.4636 52.6469 49.0718 53.5447 48.778 54.5732C48.4841 55.6016 48.3372 56.6137 48.3372 57.6096C48.3372 58.9482 48.6637 59.9766 49.333 60.6949C50.0023 61.4131 50.9492 61.7723 52.1735 61.7723C53.8713 61.7723 55.2752 61.0214 56.3526 59.5195C57.43 58.0176 57.9688 56.0914 57.9688 53.7243C57.9688 52.402 57.6259 51.3898 56.9566 50.6879C56.271 50.0023 55.2915 49.6594 53.9855 49.6594ZM30.9515 49.692C29.3517 49.692 27.9804 50.4593 26.8703 52.0101C25.7439 53.5447 25.1889 55.4547 25.1889 57.7238C25.1889 59.0461 25.5154 60.0582 26.1684 60.7928C26.8214 61.5274 27.7355 61.8865 28.9109 61.8865C30.5107 61.8865 31.8493 61.1193 32.9431 59.5848C34.0368 58.0502 34.5919 56.1403 34.5919 53.8385C34.5919 52.5325 34.2654 51.5204 33.6287 50.8021C32.9757 50.0512 32.0942 49.692 30.9515 49.692Z" clip-rule="evenodd" fill="#0F58FB" fill-opacity="1.000000" fill-rule="evenodd"/>
	<path id="Union" d="M81.4925 7.46033C80.5457 14.8554 74.0811 20.8629 67.0452 20.8629L64.8904 20.8629L67.3717 4.19543L80.1213 4.19543L80.7579 0L82.5047 0L82.3741 0.963135L82.3251 0.963135L82.0965 2.7262L81.868 4.22809L81.9007 4.22809L81.4925 7.46033ZM0.375458 38.771L5.66464 4.19543L16.7164 4.19543L12.7659 29.7761L28.4538 29.7761L27.1642 38.771L0.375458 38.771ZM29.7435 38.771L35.0327 4.19543L61.7724 4.19543L60.4991 12.4394L44.5662 12.4394L43.799 17.1735L57.9688 17.1735L56.7281 24.8787L42.5909 24.8787L41.8563 30.4128L58.834 30.4128L57.6423 38.771L29.7435 38.771ZM96.3969 13.8923C96.8867 15.5411 97.1315 17.3204 97.1642 19.2141L102.29 19.2141L102.045 20.9119L100.299 20.9119L100.299 20.8629L94.4053 20.8629C87.9501 20.8629 83.2537 15.8198 83.2537 9.26379C83.2537 8.67401 83.2917 8.07202 83.3699 7.46039L83.778 4.30975C85.9981 4.45667 87.8102 4.79944 89.1978 5.37085C91.1077 6.15442 92.7729 7.47668 94.1931 9.35406C95.1399 10.5947 95.8745 12.1129 96.3969 13.8923ZM79.7948 35.6693C80.7416 28.2742 87.2061 22.2668 94.2421 22.2668L94.2421 22.2505L97.0336 22.2505C96.6255 27.1642 95.0583 31.0494 92.2831 33.8409C89.6059 36.5345 85.9165 38.1017 81.2477 38.5751L80.709 42.1665L78.9622 42.1665L78.9622 42.1502L79.4846 38.7057L79.403 38.7057L79.7948 35.6693ZM77.9011 35.6857L77.5093 38.7711L62.2295 38.7711L64.4333 23.9973L59.7155 23.9973L59.9604 22.2995L64.6782 22.2995L64.6782 22.2832L66.8657 22.2832C73.3209 22.2832 78.0173 27.3262 78.0173 33.8823C78.0173 34.472 77.9792 35.074 77.9011 35.6857ZM90.0956 63.6497C89.7202 63.7639 89.3773 63.8456 89.0672 63.8945C88.757 63.9598 88.4795 63.9761 88.2509 63.9761C87.1409 63.9761 86.3083 63.7639 85.7533 63.3395C85.1982 62.915 84.9207 62.2784 84.9207 61.4132C84.9207 61.2173 84.937 60.9724 84.986 60.6622C85.035 60.3521 85.1003 59.9603 85.1819 59.4869L87.2062 50.0023L84.9207 50.0023L85.4105 47.8311L87.6633 47.8311L88.5774 43.5377L91.2383 43.5377L90.3242 47.8311L93.0504 47.8311L92.5933 50.0023L89.8508 50.0023L87.7775 59.7807C87.7122 60.0256 87.6796 60.2378 87.6469 60.4337C87.6143 60.6296 87.598 60.7766 87.598 60.8908C87.598 61.1846 87.6959 61.3969 87.9081 61.5601C88.1203 61.7233 88.4142 61.7886 88.806 61.7886C89.0672 61.7886 89.3284 61.7723 89.6059 61.7397C89.8834 61.707 90.1772 61.6581 90.5037 61.6091L90.0956 63.6497ZM45.562 57.3973Q45.562 53.7951 47.1975 51.2397L47.1977 51.2394Q47.5633 50.6682 48.0107 50.1492C49.6432 48.2556 51.7327 47.325 54.2794 47.325C56.3036 47.325 57.8871 47.929 59.0625 49.1207C60.2379 50.3124 60.8092 51.9612 60.8092 54.0344C60.8092 56.9729 59.993 59.3726 58.3605 61.2499C56.7281 63.1273 54.6385 64.0741 52.0919 64.0741C50.0186 64.0741 48.4188 63.4864 47.2761 62.311C46.1334 61.152 45.562 59.5032 45.562 57.3973ZM0.0326538 58.1156L2.53032 58.1156L2.53032 58.6707C2.53032 59.7807 2.88947 60.6133 3.59142 61.1683C4.29338 61.7397 5.33815 62.0172 6.6931 62.0172C7.70523 62.0172 8.4888 61.805 9.07649 61.3642C9.66418 60.9234 9.95802 60.3521 9.95802 59.6011C9.95802 59.0951 9.8111 58.6707 9.51726 58.3278C9.22342 57.985 8.45616 57.5279 7.24814 56.9565C7.06856 56.8749 6.79105 56.7443 6.4319 56.5811C3.5098 55.2261 2.04057 53.6753 2.04057 51.9612C2.04057 50.5736 2.56297 49.4636 3.62407 48.6147C4.68517 47.7658 6.08908 47.3414 7.85214 47.3414C9.6805 47.3414 11.1007 47.7984 12.1292 48.7289C13.1413 49.6431 13.6637 50.9327 13.6637 52.5815L13.6637 52.9244L11.215 52.9244L11.215 52.8427C11.215 51.7653 10.9212 50.9654 10.3498 50.4267C9.77846 49.888 8.91324 49.6105 7.77052 49.6105C6.80737 49.6105 6.04012 49.8063 5.48508 50.1818C4.89738 50.541 4.61987 51.0634 4.61987 51.7164C4.61987 52.4999 5.5014 53.2998 7.24814 54.0997C7.32976 54.1324 7.37874 54.165 7.39505 54.1813C9.69682 55.2261 11.1497 56.075 11.7211 56.728C12.3088 57.381 12.6026 58.2136 12.6026 59.2256C12.6026 60.7275 12.0312 61.9355 10.8722 62.8497C9.71315 63.7639 8.17863 64.221 6.23601 64.221C4.30971 64.221 2.7915 63.7313 1.66512 62.7518C0.555038 61.756 0 60.4174 0 58.7196L0 58.3441C0.0163269 58.2625 0.0163269 58.1809 0.0326538 58.1156ZM68.3839 63.6497L71.6978 47.8474L74.2444 47.8474L73.5751 50.7858C74.4566 49.5289 75.2402 48.6636 75.9095 48.1739C76.5788 47.6841 77.2971 47.4393 78.048 47.4393C78.2276 47.4393 78.4072 47.4556 78.6194 47.4719C78.8316 47.4883 79.0275 47.5209 79.2561 47.5536L78.5868 50.5573L78.5215 50.5573C78.1623 50.5247 77.9011 50.492 77.7216 50.492C76.4156 50.492 75.3382 50.9491 74.5056 51.8633C73.673 52.7775 73.0527 54.1814 72.6446 56.0587L71.0121 63.6497L68.3839 63.6497ZM19.9487 69.9672L24.389 47.8474L26.8377 47.8474L26.3806 50.1002C27.0826 49.2186 27.8498 48.5656 28.6987 48.1249C29.5476 47.6841 30.4781 47.4719 31.4739 47.4719C33.3022 47.4719 34.7388 48.0596 35.7673 49.2186C36.7957 50.3777 37.3181 51.9938 37.3181 54.0507C37.3181 55.4056 37.1059 56.6953 36.6978 57.936C36.2896 59.1766 35.702 60.2867 34.9347 61.2499C34.1838 62.1967 33.3186 62.915 32.3391 63.4047C31.3596 63.8945 30.3148 64.1556 29.2211 64.1556C28.1437 64.1556 27.1805 63.9271 26.3643 63.4537C25.5317 62.9803 24.8298 62.262 24.2421 61.3152L22.4627 69.9999L19.9487 69.9999L19.9487 69.9672ZM53.9855 49.6594C53.153 49.6594 52.4021 49.839 51.7327 50.2145C51.0634 50.59 50.4757 51.145 49.9697 51.8959C49.4636 52.6469 49.0718 53.5447 48.778 54.5732C48.4841 55.6016 48.3372 56.6137 48.3372 57.6096C48.3372 58.9482 48.6637 59.9766 49.333 60.6949C50.0023 61.4131 50.9492 61.7723 52.1735 61.7723C53.8713 61.7723 55.2752 61.0214 56.3526 59.5195C57.43 58.0176 57.9688 56.0914 57.9688 53.7243C57.9688 52.402 57.6259 51.3898 56.9566 50.6879C56.271 50.0023 55.2915 49.6594 53.9855 49.6594ZM30.9515 49.692C29.3517 49.692 27.9804 50.4593 26.8703 52.0101C25.7439 53.5447 25.1889 55.4547 25.1889 57.7238C25.1889 59.0461 25.5154 60.0582 26.1684 60.7928C26.8214 61.5274 27.7355 61.8865 28.9109 61.8865C30.5107 61.8865 31.8493 61.1193 32.9431 59.5848C34.0368 58.0502 34.5919 56.1403 34.5919 53.8385C34.5919 52.5325 34.2654 51.5204 33.6287 50.8021C32.9757 50.0512 32.0942 49.692 30.9515 49.692Z" clip-rule="evenodd" fill="url(#paint_linear_58_564_0)" fill-opacity="1.000000" fill-rule="evenodd"/>
</svg>
