<svg width="29" height="38" viewBox="0 0 29 38" fill="none" xmlns="http://www.w3.org/2000/svg">
<path fill-rule="evenodd" clip-rule="evenodd" d="M0 6.24194C0 5.68966 0.447715 5.24194 1 5.24194H28C28.5523 5.24194 29 5.68966 29 6.24194V6.94194C29 7.49423 28.5523 7.94194 28 7.94194H1C0.447716 7.94194 0 7.49423 0 6.94194V6.24194ZM0 15.025C0 14.4727 0.447715 14.025 1 14.025H28C28.5523 14.025 29 14.4727 29 15.025V15.725C29 16.2773 28.5523 16.725 28 16.725H1C0.447716 16.725 0 16.2773 0 15.725V15.025ZM1 22.808C0.447715 22.808 0 23.2557 0 23.808V24.508C0 25.0603 0.447716 25.508 1 25.508H28C28.5523 25.508 29 25.0603 29 24.508V23.808C29 23.2557 28.5523 22.808 28 22.808H1Z" fill="url(#paint0_linear_2345_1669)"/>
<defs>
<linearGradient id="paint0_linear_2345_1669" x1="20.0028" y1="6.9331" x2="-23.6558" y2="37.266" gradientUnits="userSpaceOnUse">
<stop stop-color="#00B3FF"/>
<stop offset="1" stop-color="#AD00FF"/>
</linearGradient>
</defs>
</svg>
