<svg width="1226.196777" height="222.159698" viewBox="0 0 1226.2 222.16" fill="none" xmlns="http://www.w3.org/2000/svg" xmlns:xlink="http://www.w3.org/1999/xlink">
	<desc>
			Created with Pixso.
	</desc>
	<defs>
		<linearGradient x1="27.640625" y1="26.597260" x2="351.882721" y2="289.688416" id="paint_linear_58_505_0" gradientUnits="userSpaceOnUse">
			<stop stop-color="#00B3FF"/>
			<stop offset="1.000000" stop-color="#AD00FF"/>
		</linearGradient>
	</defs>
	<path id="Subtract" d="M1098.38 6.10352e-05L1226.19 6.10352e-05L1226.2 6.10352e-05L1098.38 6.10352e-05ZM1098.38 221.84C1090.78 221.84 1083.58 218.379 1078.84 212.435L1010.27 126.515C1002.99 117.393 1002.99 104.447 1010.27 95.3253L1078.84 9.40515C1083.58 3.46144 1090.78 6.10352e-05 1098.38 6.10352e-05L170.238 6.10352e-05C162.641 6.10352e-05 155.457 3.4539 150.713 9.3866L82.0049 95.3068C74.7048 104.436 74.7048 117.405 82.0049 126.534L150.713 212.454C155.457 218.387 162.641 221.84 170.238 221.84L1098.38 221.84Z" clip-rule="evenodd" fill="#FCFCFD" fill-opacity="1.000000" fill-rule="evenodd"/>
	<path id="Subtract" d="M171.131 222.16L93.5742 222.16C85.9695 222.16 78.7783 218.698 74.0347 212.755L5.46033 126.834C-1.82007 117.712 -1.82007 104.767 5.46033 95.6447L74.0347 9.72449C78.7783 3.78078 85.9695 0.319397 93.5742 0.319397L171.131 0.319397C163.527 0.319397 156.335 3.78078 151.592 9.72449L83.0176 95.6447C75.7371 104.767 75.7371 117.712 83.0176 126.834L151.592 212.755C156.335 218.698 163.527 222.16 171.131 222.16Z" clip-rule="evenodd" fill="url(#paint_linear_58_505_0)" fill-opacity="1.000000" fill-rule="evenodd"/>
</svg>
